<svg width="32" height="32" viewBox="0 0 32 32" fill="none" xmlns="http://www.w3.org/2000/svg">
  <!-- Logo AdexGenie - version claire -->
  <path d="M16 4C9.373 4 4 9.373 4 16C4 22.627 9.373 28 16 28C22.627 28 28 22.627 28 16C28 9.373 22.627 4 16 4Z" fill="#0891b2"/>
  <path d="M16 8C11.582 8 8 11.582 8 16C8 20.418 11.582 24 16 24C20.418 24 24 20.418 24 16C24 11.582 20.418 8 16 8Z" fill="#0891b2"/>
  <path d="M12 12C11.448 12 11 12.448 11 13V19C11 19.552 11.448 20 12 20H14C14.552 20 15 19.552 15 19V17H17V19C17 19.552 17.448 20 18 20H20C20.552 20 21 19.552 21 19V13C21 12.448 20.552 12 20 12H12Z" fill="white"/>
  <circle cx="16" cy="16" r="2" fill="white"/>
</svg>
